# This file uses centimeters as units for non-parametric coordinates.

g default
v -1.200000 -0.000000 0.250000
v 1.200000 -0.000000 0.250000
v -1.200000 2.899999 0.250000
v 1.200000 2.899999 0.250000
v -1.200000 2.899999 -0.250000
v 1.200000 2.899999 -0.250000
v -1.200000 -0.000000 -0.250000
v 1.200000 -0.000000 -0.250000
v 0.000000 5.599999 0.250000
v 0.000000 5.599999 -0.250000
v 2.900000 2.900000 0.250000
v 2.900000 2.900000 -0.250000
v -2.900000 2.900000 0.250000
v -2.900000 2.900000 -0.250000
vt 0.346438 0.638301
vt 0.200857 0.638301
vt 0.346438 0.427210
vt 0.200857 0.427210
vt 0.196193 0.638301
vt 0.050613 0.427210
vt 0.196193 0.427210
vt 0.050613 0.638301
vt 0.152793 0.641336
vt 0.298374 0.816032
vt 0.152793 0.816032
vt 0.298374 0.641336
vt 0.303924 0.852428
vt 0.427668 0.998008
vt 0.303924 0.998008
vt 0.427668 0.852428
vt 0.432830 0.998008
vt 0.432830 0.852428
vt 0.556573 0.852428
vt 0.556573 0.998008
vt 0.198048 0.125735
vt 0.198048 0.300432
vt 0.001514 0.213084
vt 0.409140 0.125735
vt 0.198048 0.424175
vt 0.198048 0.001992
vt 0.409140 0.300432
vt 0.562194 0.725650
vt 0.562194 0.550953
vt 0.758727 0.638301
vt 0.351102 0.550953
vt 0.562194 0.427210
vt 0.562194 0.849393
vt 0.351102 0.725650
vt 0.147095 0.837869
vt 0.001514 0.837869
vt 0.147095 0.641336
vt 0.147095 0.641336
vt 0.001514 0.641336
vt 0.001514 0.641336
vn -0.000000 0.000000 -1.000000
vn 0.000000 0.000000 -1.000000
vn -0.000000 0.000000 -1.000000
vn 0.000000 -1.000000 0.000000
vn 0.000000 -1.000000 0.000000
vn 0.000000 -1.000000 0.000000
vn 1.000000 0.000000 0.000000
vn 1.000000 0.000000 0.000000
vn 1.000000 0.000000 0.000000
vn -1.000000 0.000000 0.000000
vn -1.000000 0.000000 0.000000
vn -1.000000 0.000000 0.000000
vn 0.000000 0.000000 1.000000
vn 0.000000 0.000000 1.000000
vn 0.000000 0.000000 1.000000
vn -0.000000 -1.000000 0.000000
vn -0.000000 -1.000000 0.000000
vn -0.000000 -1.000000 0.000000
vn 0.681419 0.731894 0.000000
vn 0.681419 0.731894 0.000000
vn 0.681419 0.731894 0.000000
vn 0.000000 -1.000000 0.000000
vn 0.000000 -1.000000 0.000000
vn 0.000000 -1.000000 0.000000
vn -0.681419 0.731894 0.000000
vn -0.681419 0.731894 0.000000
vn -0.681419 0.731894 0.000000
vn 0.000000 0.000000 1.000000
vn 0.000000 0.000000 1.000000
vn 0.000000 0.000000 1.000000
vn 0.000000 0.000000 -1.000000
vn 0.000000 0.000000 -1.000000
vn -0.000000 0.000000 -1.000000
vn -0.681419 0.731894 0.000000
vn -0.000000 -1.000000 0.000000
vn -1.000000 0.000000 0.000000
vn 0.681419 0.731894 0.000000
vn 0.000000 -1.000000 0.000000
vn 1.000000 0.000000 0.000000
vn 0.000000 -1.000000 0.000000
vn 0.000000 0.000000 1.000000
vn 0.000000 0.000000 -1.000000
s 1
g pCube1
f 6/21/1 5/22/2 10/23/3
s 2
f 8/9/4 1/10/5 7/11/6
s 3
f 6/1/7 4/2/8 8/3/9
s 4
f 1/7/10 3/5/11 7/6/12
s 5
f 3/28/13 4/29/14 9/30/15
s 6
f 14/13/16 3/14/17 13/15/18
s 7
f 10/35/19 9/36/20 12/37/21
s 8
f 4/17/22 6/18/23 12/19/24
s 9
f 9/36/25 14/38/26 13/40/27
s 5
f 2/31/28 4/29/14 3/28/13
f 9/30/15 4/29/14 11/32/29
f 3/28/13 9/30/15 13/33/30
s 1
f 8/24/31 5/22/2 6/21/1
f 10/23/3 5/22/2 14/25/32
f 6/21/1 10/23/3 12/26/33
s 9
f 10/35/34 14/38/26 9/36/25
s 6
f 5/16/35 3/14/17 14/13/16
s 4
f 7/6/12 3/5/11 5/8/36
s 7
f 12/37/21 9/36/20 11/39/37
s 8
f 4/17/22 12/19/24 11/20/38
s 3
f 8/3/9 4/2/8 2/4/39
s 2
f 1/10/5 8/9/4 2/12/40
s 5
f 2/31/28 3/28/13 1/34/41
s 1
f 5/22/2 8/24/31 7/27/42
