# This file uses centimeters as units for non-parametric coordinates.

g default
v 0.143670 0.000000 0.480860
v 0.143670 0.000000 -0.480860
v 0.250000 3.784405 0.836743
v 0.250000 3.784405 -0.836743
v -0.250000 3.784405 0.836743
v -0.250000 3.784405 -0.836743
v -0.143670 0.000000 0.480860
v -0.143670 0.000000 -0.480860
v 0.000000 7.307818 0.000000
v 0.250000 3.784407 -2.022129
v -0.250000 3.784407 -2.022129
v 0.250000 3.784407 2.022129
v -0.250000 3.784407 2.022129
v 0.250000 0.479984 0.836743
v 0.250000 0.479984 -0.836743
v -0.250000 0.479984 -0.836743
v -0.250000 0.479984 0.836743
v -0.199613 0.000000 0.239536
v -0.199613 0.000000 -0.239536
v 0.000000 0.000000 0.606793
v 0.199613 0.000000 0.239536
v 0.199613 0.000000 -0.239536
v 0.000000 0.000000 -0.606793
vt 0.125265 0.395335
vt 0.299297 0.395335
vt 0.212281 0.761748
vt 0.299297 0.051696
vt 0.125265 0.051696
vt 0.422570 0.395335
vt 0.001992 0.395335
vt 0.187371 0.001780
vt 0.237191 0.001780
vt 0.162274 0.001780
vt 0.262287 0.001780
vt 0.149178 0.001780
vt 0.275383 0.001780
vt 0.552280 0.395335
vt 0.726312 0.395335
vt 0.639296 0.761748
vt 0.726312 0.051696
vt 0.552280 0.051696
vt 0.849585 0.395335
vt 0.429008 0.395335
vt 0.664207 0.001780
vt 0.614386 0.001780
vt 0.689303 0.001780
vt 0.589290 0.001780
vt 0.702399 0.001780
vt 0.576194 0.001780
vt 0.875926 0.878848
vt 0.860985 0.891944
vt 0.846044 0.878848
vt 0.840227 0.853752
vt 0.840227 0.803932
vt 0.846044 0.778835
vt 0.860985 0.765739
vt 0.875926 0.778835
vt 0.881744 0.803932
vt 0.881744 0.853752
vt 0.782094 0.889012
vt 0.834091 0.765739
vt 0.834091 0.889012
vt 0.782094 0.765739
vt 0.775959 0.889012
vt 0.723962 0.889012
vt 0.723962 0.765739
vt 0.775959 0.765739
vt 0.855828 0.001780
vt 0.907825 0.001780
vt 0.907825 0.345419
vt 0.855828 0.345419
vt 0.881827 0.395335
vt 0.966294 0.395335
vt 0.914297 0.395335
vt 0.914297 0.051696
vt 0.966294 0.051696
vt 0.940295 0.001780
vt 0.946011 0.765739
vt 0.972010 0.399326
vt 0.998008 0.765739
vt 0.887879 0.399326
vt 0.939876 0.399326
vt 0.913877 0.765739
vn -1.000000 0.000000 -0.000000
vn -1.000000 0.000000 -0.000000
vn -1.000000 0.000000 -0.000000
vn 0.000000 -1.000000 0.000000
vn 0.000000 -1.000000 0.000000
vn 0.000000 -1.000000 0.000000
vn 0.000000 -1.000000 0.000000
vn 0.000000 -1.000000 0.000000
vn 0.000000 -1.000000 0.000000
vn 0.000000 -1.000000 0.000000
vn 0.000000 -1.000000 0.000000
vn 0.000000 -1.000000 0.000000
vn 0.000000 -1.000000 0.000000
vn 0.000000 0.000000 -1.000000
vn 0.000000 0.000000 -1.000000
vn 0.956967 -0.012516 -0.289927
vn -0.956967 -0.012516 -0.289927
vn 0.000000 0.000000 1.000000
vn 0.000000 0.000000 1.000000
vn -0.956967 -0.012516 0.289927
vn 0.956967 -0.012516 0.289927
vn 1.000000 0.000000 0.000000
vn 1.000000 0.000000 0.000000
vn 1.000000 0.000000 0.000000
vn 0.000000 -1.000000 0.000000
vn 0.000000 -1.000000 0.000000
vn 0.000000 -1.000000 0.000000
vn 0.000000 0.497762 -0.867314
vn 0.000000 0.497762 -0.867314
vn 0.000000 0.497762 -0.867314
vn 0.000000 -1.000000 0.000000
vn 0.000000 -1.000000 0.000000
vn 0.000000 -1.000000 0.000000
vn 0.000000 0.497762 0.867314
vn 0.000000 0.497762 0.867314
vn 0.000000 0.497762 0.867314
vn 0.956967 -0.012516 -0.289927
vn 1.000000 0.000000 0.000000
vn 1.000000 0.000000 0.000000
vn 0.956967 -0.012516 0.289927
vn 1.000000 0.000000 0.000000
vn 1.000000 0.000000 0.000000
vn 1.000000 0.000000 0.000000
vn 1.000000 0.000000 0.000000
vn 1.000000 0.000000 0.000000
vn 1.000000 0.000000 0.000000
vn -0.956967 -0.012516 0.289927
vn -1.000000 0.000000 -0.000000
vn -1.000000 0.000000 -0.000000
vn -0.956967 -0.012516 -0.289927
vn -1.000000 0.000000 -0.000000
vn -1.000000 0.000000 -0.000000
vn -1.000000 0.000000 -0.000000
vn -1.000000 0.000000 -0.000000
vn -1.000000 0.000000 -0.000000
vn -1.000000 0.000000 -0.000000
vn 0.000000 -1.000000 0.000000
vn 0.000000 -1.000000 0.000000
vn 0.000000 -1.000000 0.000000
vn 0.000000 -1.000000 0.000000
vn 0.000000 -1.000000 0.000000
vn 0.000000 -1.000000 0.000000
vn 0.993504 -0.113556 -0.007444
vn 0.956967 -0.012516 -0.289927
vn 0.956967 -0.012516 0.289927
vn 0.993504 -0.113556 0.007444
vn 0.000000 -0.197709 -0.980261
vn -0.956967 -0.012516 -0.289927
vn 0.956967 -0.012516 -0.289927
vn -0.956967 -0.012516 0.289927
vn -0.993504 -0.113556 0.007444
vn -1.000000 0.000000 -0.000000
vn -0.956967 -0.012516 0.289927
vn 0.000000 -0.197709 0.980261
vn 0.956967 -0.012516 0.289927
vn -0.956967 -0.012516 0.289927
vn -0.956967 -0.012516 -0.289927
vn -0.993504 -0.113556 -0.007444
vn -0.993504 -0.113556 0.007444
vn -0.993504 -0.113556 -0.007444
vn -0.956967 -0.012516 -0.289927
vn -1.000000 0.000000 -0.000000
vn -1.000000 0.000000 -0.000000
vn 0.000000 -0.197709 0.980261
vn -0.956967 -0.012516 0.289927
vn 0.956967 -0.012516 0.289927
vn 0.000000 -0.197709 0.980261
vn 0.000000 0.000000 1.000000
vn 0.993504 -0.113556 0.007444
vn 0.956967 -0.012516 0.289927
vn 0.000000 0.000000 1.000000
vn 1.000000 0.000000 0.000000
vn 0.956967 -0.012516 -0.289927
vn 0.993504 -0.113556 -0.007444
vn 0.000000 -0.197709 -0.980261
vn 0.956967 -0.012516 -0.289927
vn 1.000000 0.000000 0.000000
vn -1.000000 0.000000 -0.000000
vn -0.956967 -0.012516 -0.289927
vn 0.000000 -0.197709 -0.980261
s off
g riddick_downvote_whole:pCube3
f 6/1/1 5/2/2 9/3/3
f 1/27/4 20/28/5 7/29/6 18/30/7 19/31/8 8/32/9 23/33/10 2/34/11 22/35/12 21/36/13
f 6/45/14 4/46/15 15/47/16 16/48/17
f 3/50/18 5/51/19 17/52/20 14/53/21
f 3/14/22 4/15/23 9/16/24
f 13/37/25 3/38/26 12/39/27
f 11/55/28 9/56/29 10/57/30
f 4/41/31 6/42/32 11/43/33
f 13/58/34 12/59/35 9/60/36
f 15/17/37 4/15/38 3/14/39 14/18/40
f 9/16/41 4/15/42 10/19/43
f 3/14/44 9/16/45 12/20/46
f 17/4/47 5/2/48 6/1/49 16/5/50
f 9/3/51 5/2/52 13/6/53
f 6/1/54 9/3/55 11/7/56
f 5/40/57 3/38/58 13/37/59
f 4/41/60 11/43/61 10/44/62
f 22/21/63 15/17/64 14/18/65 21/22/66
f 23/49/67 16/48/68 15/47/69
f 17/4/70 18/9/71 7/11/72
f 17/52/73 20/54/74 14/53/75
f 17/4/76 16/5/77 19/8/78 18/9/79
f 19/8/80 16/5/81 8/10/82
f 7/11/83 20/13/84 17/4/85
f 14/18/86 20/26/87 1/24/88
f 21/22/89 14/18/90 1/24/91
f 2/23/92 15/17/93 22/21/94
f 23/25/95 15/17/96 2/23/97
f 8/10/98 16/5/99 23/12/100
