# This file uses centimeters as units for non-parametric coordinates.

mtllib triforce.mtl
g default
v -1.886293 -1.925187 -0.811499
v -0.113707 -1.925187 -0.811499
v -1.000000 -0.152601 -0.811499
v -1.000000 0.000000 -1.000000
v -2.000000 -2.000000 -1.000000
v 0.000000 -2.000000 -1.000000
v -0.886293 0.074813 -0.811499
v 0.886293 0.074813 -0.811499
v 0.000000 1.847399 -0.811499
v 0.000000 2.000000 -1.000000
v -1.000000 0.000000 -1.000000
v 1.000000 0.000000 -1.000000
v 0.113707 -1.925187 -0.811499
v 1.886293 -1.925187 -0.811499
v 1.000000 -0.152601 -0.811499
v 1.000000 0.000000 -1.000000
v 0.000000 -2.000000 -1.000000
v 2.000000 -2.000000 -1.000000
vt 0.391487 0.014805
vt 0.423770 0.001992
vt 0.423770 0.344518
vt 0.391487 0.318383
vt 0.431154 0.001992
vt 0.463438 0.014805
vt 0.463438 0.318383
vt 0.431154 0.344518
vt 0.860286 0.014805
vt 0.892569 0.001992
vt 0.892569 0.344518
vt 0.860286 0.318383
vt 0.891023 0.348211
vt 0.923306 0.361023
vt 0.923306 0.664602
vt 0.891023 0.690737
vt 0.466903 0.361023
vt 0.499186 0.348211
vt 0.499186 0.690737
vt 0.466903 0.664602
vt 0.428943 0.348211
vt 0.461227 0.361023
vt 0.461227 0.664602
vt 0.428943 0.690737
vt 0.351819 0.344518
vt 0.351819 0.001992
vt 0.384102 0.021466
vt 0.384102 0.325044
vt 0.820618 0.344518
vt 0.820618 0.001992
vt 0.852901 0.021466
vt 0.852901 0.325044
vt 0.504862 0.690737
vt 0.504862 0.348211
vt 0.537145 0.367685
vt 0.537145 0.671263
vt 0.119689 0.651789
vt 0.119689 0.348211
vt 0.423267 0.500000
vt 0.173106 0.001992
vt 0.344369 0.344518
vt 0.001843 0.344518
vt 0.001843 0.959060
vt 0.001843 0.655482
vt 0.305421 0.807271
vt 0.642085 0.001992
vt 0.813348 0.344518
vt 0.470822 0.344518
vt 0.312152 0.694430
vt 0.615730 0.694430
vt 0.463941 0.998008
vt 0.714084 0.348211
vt 0.885347 0.690737
vt 0.542821 0.690737
vn 0.000000 0.000000 1.000000
vn 0.000000 0.000000 1.000000
vn 0.000000 0.000000 1.000000
vn 0.000000 0.000000 -1.000000
vn 0.000000 0.000000 -1.000000
vn 0.000000 0.000000 -1.000000
vn 0.000000 -0.929472 0.368892
vn 0.000000 -0.929472 0.368892
vn 0.000000 -0.929472 0.368892
vn 0.000000 -0.929472 0.368892
vn 0.841006 0.420503 0.340419
vn 0.841006 0.420503 0.340419
vn 0.841007 0.420503 0.340419
vn 0.841006 0.420503 0.340419
vn -0.841006 0.420503 0.340420
vn -0.841006 0.420503 0.340420
vn -0.841006 0.420503 0.340420
vn -0.841006 0.420503 0.340420
vn 0.000000 0.000000 1.000000
vn 0.000000 0.000000 1.000000
vn 0.000000 0.000000 1.000000
vn 0.000000 0.000000 -1.000000
vn 0.000000 0.000000 -1.000000
vn 0.000000 0.000000 -1.000000
vn 0.000000 -0.929473 0.368892
vn 0.000000 -0.929473 0.368892
vn 0.000000 -0.929473 0.368892
vn 0.000000 -0.929473 0.368892
vn 0.841006 0.420503 0.340419
vn 0.841006 0.420503 0.340419
vn 0.841006 0.420503 0.340419
vn 0.841006 0.420503 0.340419
vn -0.841006 0.420503 0.340420
vn -0.841006 0.420503 0.340420
vn -0.841006 0.420503 0.340420
vn -0.841006 0.420503 0.340420
vn 0.000000 0.000000 1.000000
vn 0.000000 0.000000 1.000000
vn 0.000000 0.000000 1.000000
vn 0.000000 0.000000 -1.000000
vn 0.000000 0.000000 -1.000000
vn 0.000000 0.000000 -1.000000
vn 0.000000 -0.929472 0.368892
vn 0.000000 -0.929472 0.368892
vn 0.000000 -0.929472 0.368892
vn 0.000000 -0.929472 0.368892
vn 0.841006 0.420503 0.340419
vn 0.841006 0.420503 0.340419
vn 0.841007 0.420503 0.340419
vn 0.841006 0.420503 0.340419
vn -0.841006 0.420503 0.340420
vn -0.841006 0.420503 0.340420
vn -0.841006 0.420503 0.340420
vn -0.841006 0.420503 0.340420
s off
g pCube4
usemtl initialShadingGroup
f 1/37/1 2/38/2 3/39/3
f 4/40/4 6/41/5 5/42/6
f 5/25/7 6/26/8 2/27/9 1/28/10
f 2/1/11 6/2/12 4/3/13 3/4/14
f 5/5/15 1/6/16 3/7/17 4/8/18
f 7/43/19 8/44/20 9/45/21
f 10/46/22 12/47/23 11/48/24
f 11/29/25 12/30/26 8/31/27 7/32/28
f 8/9/29 12/10/30 10/11/31 9/12/32
f 11/13/33 7/14/34 9/15/35 10/16/36
f 13/49/37 14/50/38 15/51/39
f 16/52/40 18/53/41 17/54/42
f 17/33/43 18/34/44 14/35/45 13/36/46
f 14/17/47 18/18/48 16/19/49 15/20/50
f 17/21/51 13/22/52 15/23/53 16/24/54
